<?xml version="1.0" standalone="no"?>
<!DOCTYPE svg PUBLIC "-//W3C//DTD SVG 20010904//EN"
 "http://www.w3.org/TR/2001/REC-SVG-20010904/DTD/svg10.dtd">
<svg version="1.0" xmlns="http://www.w3.org/2000/svg"
 width="353.000000pt" height="460.000000pt" viewBox="0 0 353.000000 460.000000"
 preserveAspectRatio="xMidYMid meet">

<g transform="translate(0.000000,460.000000) scale(0.100000,-0.100000)"
fill="#000000" stroke="none">
<path d="M1450 4234 c-273 -33 -591 -116 -830 -218 -42 -18 -36 -20 86 -35
155 -19 327 -71 417 -128 37 -23 39 -23 110 -9 167 34 255 41 537 41 278 0
429 -13 550 -45 31 -9 45 -5 125 35 100 50 230 87 379 109 54 8 100 17 102 19
9 9 -281 111 -430 151 -132 36 -283 64 -431 81 -159 18 -458 18 -615 -1z"/>
<path d="M430 3589 l0 -320 24 -24 c13 -13 35 -27 48 -30 37 -8 577 -95 594
-95 12 0 14 44 12 317 l-3 317 -73 37 c-118 60 -295 99 -514 113 l-88 5 0
-320z"/>
<path d="M3030 3903 c-214 -12 -395 -50 -522 -109 l-78 -37 0 -319 c0 -175 3
-318 8 -318 48 2 604 101 619 111 12 7 26 24 32 36 13 27 16 644 4 641 -5 -1
-33 -3 -63 -5z"/>
<path d="M1525 3784 c-95 -9 -282 -37 -302 -45 l-23 -9 0 -310 0 -310 565 0
565 0 0 309 c0 207 -4 312 -11 316 -5 4 -61 16 -122 26 -86 15 -173 21 -372
23 -143 2 -278 2 -300 0z"/>
<path d="M1200 2801 c0 -115 3 -216 6 -225 6 -14 64 -16 560 -16 l554 0 0 225
0 225 -560 0 -560 0 0 -209z"/>
<path d="M1210 2235 l0 -225 555 0 555 0 0 225 0 225 -555 0 -555 0 0 -225z"/>
<path d="M1210 1685 l0 -225 555 0 555 0 0 225 0 225 -555 0 -555 0 0 -225z"/>
<path d="M1210 1135 l0 -225 555 0 555 0 0 225 0 225 -555 0 -555 0 0 -225z"/>
<path d="M1210 790 c0 -43 24 -129 52 -187 57 -117 201 -223 350 -258 82 -19
228 -19 303 0 150 38 286 137 348 253 28 52 62 185 52 203 -4 5 -222 9 -556 9
-538 0 -549 0 -549 -20z"/>
</g>
</svg>
