<?xml version="1.0" encoding="UTF-8"?>
<!DOCTYPE svg PUBLIC "-//W3C//DTD SVG 1.1//EN" "http://www.w3.org/Graphics/SVG/1.1/DTD/svg11.dtd">
<svg xmlns="http://www.w3.org/2000/svg" version="1.1" width="516px" height="516px" style="shape-rendering:geometricPrecision; text-rendering:geometricPrecision; image-rendering:optimizeQuality; fill-rule:evenodd; clip-rule:evenodd" xmlns:xlink="http://www.w3.org/1999/xlink">
<g><path style="opacity:0.99" fill="#000000" d="M 307.5,47.5 C 339.441,44.2164 362.941,56.5497 378,84.5C 379.674,88.0207 380.84,91.6873 381.5,95.5C 403.5,95.5 425.5,95.5 447.5,95.5C 447.5,106.167 447.5,116.833 447.5,127.5C 425.5,127.5 403.5,127.5 381.5,127.5C 372.174,158.311 351.34,174.311 319,175.5C 287.19,173.844 266.69,157.844 257.5,127.5C 192.833,127.5 128.167,127.5 63.5,127.5C 63.5,116.833 63.5,106.167 63.5,95.5C 128.167,95.5 192.833,95.5 257.5,95.5C 264.717,69.6159 281.383,53.6159 307.5,47.5 Z M 318.5,79.5 C 341.733,82.2314 352.233,95.2314 350,118.5C 344.207,136.822 331.707,144.655 312.5,142C 294.178,136.207 286.345,123.707 289,104.5C 293.263,89.4691 303.097,81.1357 318.5,79.5 Z"/></g>
<g><path style="opacity:0.99" fill="#000000" d="M 179.5,191.5 C 211.441,188.216 234.941,200.55 250,228.5C 251.674,232.021 252.84,235.687 253.5,239.5C 318.167,239.5 382.833,239.5 447.5,239.5C 447.5,250.167 447.5,260.833 447.5,271.5C 382.833,271.5 318.167,271.5 253.5,271.5C 244.174,302.311 223.34,318.311 191,319.5C 159.19,317.844 138.69,301.844 129.5,271.5C 107.5,271.5 85.5,271.5 63.5,271.5C 63.5,260.833 63.5,250.167 63.5,239.5C 85.5,239.5 107.5,239.5 129.5,239.5C 136.717,213.616 153.383,197.616 179.5,191.5 Z M 190.5,223.5 C 213.733,226.231 224.233,239.231 222,262.5C 216.207,280.822 203.707,288.655 184.5,286C 166.178,280.207 158.345,267.707 161,248.5C 165.263,233.469 175.097,225.136 190.5,223.5 Z"/></g>
<g><path style="opacity:0.99" fill="#000000" d="M 307.5,335.5 C 339.441,332.216 362.941,344.55 378,372.5C 379.674,376.021 380.84,379.687 381.5,383.5C 403.5,383.5 425.5,383.5 447.5,383.5C 447.5,394.167 447.5,404.833 447.5,415.5C 425.5,415.5 403.5,415.5 381.5,415.5C 372.174,446.311 351.34,462.311 319,463.5C 287.19,461.844 266.69,445.844 257.5,415.5C 192.833,415.5 128.167,415.5 63.5,415.5C 63.5,404.833 63.5,394.167 63.5,383.5C 128.167,383.5 192.833,383.5 257.5,383.5C 264.717,357.616 281.383,341.616 307.5,335.5 Z M 318.5,367.5 C 341.733,370.231 352.233,383.231 350,406.5C 344.207,424.822 331.707,432.655 312.5,430C 294.178,424.207 286.345,411.707 289,392.5C 293.263,377.469 303.097,369.136 318.5,367.5 Z"/></g>
</svg>
